<?xml version="1.0" encoding="UTF-8" standalone="no"?>
<!DOCTYPE svg PUBLIC "-//W3C//DTD SVG 1.1//EN" "http://www.w3.org/Graphics/SVG/1.1/DTD/svg11.dtd">
<svg width="100%" height="100%" viewBox="0 0 350 350" version="1.1" xmlns="http://www.w3.org/2000/svg" xmlns:xlink="http://www.w3.org/1999/xlink" xml:space="preserve" xmlns:serif="http://www.serif.com/" style="fill-rule:evenodd;clip-rule:evenodd;stroke-linejoin:round;stroke-miterlimit:2;">
    <g transform="matrix(1,0,0,1,-1682.849082,-2538.834)">
        <g transform="matrix(3.779528,0,0,3.779528,1299.500013,1737.5)">
            <g transform="matrix(1,0,0,1,0.569097,-109.499744)">
                <g transform="matrix(1,0,0,1,-1.138194,102.873744)">
                    <g transform="matrix(0.285815,0,0,0.285815,-477.064985,-468.740246)">
                        <path d="M2350,2454.627L2350,2679.373C2350,2706.763 2327.763,2729 2300.373,2729L2075.627,2729C2048.237,2729 2026,2706.763 2026,2679.373L2026,2454.627C2026,2427.237 2048.237,2405 2075.627,2405L2300.373,2405C2327.763,2405 2350,2427.237 2350,2454.627Z"/>
                    </g>
                    <g transform="matrix(0.150991,0,0,0.150991,-18.965883,-15.12121)">
                        <path d="M1053.04,1886.24L1015.19,1886.237L986.214,2075.13L944.412,2075.13L973.932,1884.484L943.201,1884.484L946.257,1865.272L978.434,1865.272L1000.552,1722.249C1002.557,1710.315 1005.545,1699.081 1009.517,1688.549C1013.488,1678.017 1019.16,1668.675 1026.532,1660.524C1033.905,1652.372 1043.563,1646.014 1055.506,1641.449C1067.45,1636.884 1082.223,1634.602 1099.827,1634.602C1112.03,1634.602 1272.353,1637.584 1272.353,1637.584L1265.458,1680.923L1092.909,1680.923C1080.479,1680.923 1070.664,1683.041 1063.465,1687.278C1056.265,1691.515 1050.927,1697.773 1047.451,1706.052C1043.975,1714.332 1041.33,1724.544 1039.516,1736.687L1018.772,1865.26L1055.208,1865.26C1055.681,1861.724 1056.186,1858.256 1056.724,1854.856C1060.116,1832.799 1066.267,1814.497 1075.174,1799.949C1084.082,1785.402 1096.058,1774.467 1111.102,1767.143C1126.147,1759.82 1144.385,1756.158 1165.816,1756.158C1176.764,1756.158 1186.947,1757.123 1196.367,1759.051C1205.786,1760.979 1213.984,1764.183 1220.962,1768.663C1227.939,1773.142 1233.436,1779.246 1237.452,1786.973C1241.467,1794.7 1243.475,1804.35 1243.475,1815.924C1243.475,1830.28 1240.821,1842.107 1235.513,1851.404C1230.205,1860.701 1222.997,1867.862 1213.891,1872.886C1204.784,1877.911 1194.42,1881.417 1182.797,1883.405C1173.666,1884.967 1164.223,1885.916 1154.468,1886.251C1151.806,1886.342 1149.121,1886.388 1146.412,1886.388C1143.069,1886.388 1139.817,1886.342 1136.657,1886.249L1092.7,1886.244C1092.512,1887.991 1092.367,1889.768 1092.264,1891.576C1092.057,1895.221 1091.953,1898.8 1091.953,1902.312C1091.953,1916.893 1096.672,1927.543 1106.11,1934.264C1115.548,1940.985 1144.182,1944.345 1165.987,1944.345L1223.558,1944.299L1219.524,1969.653C1210.511,1971.111 1207.504,1970.938 1193.912,1972.317C1180.32,1973.696 1153.139,1974.386 1138.397,1974.386C1118.013,1974.386 1101.506,1971.473 1088.874,1965.647C1076.243,1959.821 1067.057,1951.225 1061.316,1939.859C1055.575,1928.493 1052.704,1914.631 1052.704,1898.274C1052.704,1894.189 1052.816,1890.178 1053.04,1886.24ZM1108.137,1865.26C1132.513,1864.613 1163.961,1861.065 1172.828,1858.928C1183.492,1856.358 1191.69,1851.934 1197.423,1845.657C1203.156,1839.38 1206.022,1830.866 1206.022,1820.117C1206.022,1808.399 1202.456,1799.996 1195.323,1794.907C1188.19,1789.819 1177.433,1787.274 1163.051,1787.274C1148.62,1787.274 1136.907,1790.081 1127.912,1795.693C1118.918,1801.306 1111.929,1809.471 1106.946,1820.189C1101.963,1830.907 1096.753,1849.806 1094.433,1865.26L1108.137,1865.26Z" style="fill:white;"/>
                    </g>
                </g>
            </g>
        </g>
    </g>
</svg>
