<?xml version="1.0" encoding="UTF-8" standalone="no"?>
<!DOCTYPE svg PUBLIC "-//W3C//DTD SVG 1.1//EN" "http://www.w3.org/Graphics/SVG/1.1/DTD/svg11.dtd">
<svg width="100%" height="100%" viewBox="0 0 350 350" version="1.1" xmlns="http://www.w3.org/2000/svg" xmlns:xlink="http://www.w3.org/1999/xlink" xml:space="preserve" xmlns:serif="http://www.serif.com/" style="fill-rule:evenodd;clip-rule:evenodd;stroke-linejoin:round;stroke-miterlimit:2;">
    <g transform="matrix(1,0,0,1,-1686.775412,-3373.182622)">
        <g transform="matrix(3.779528,0,0,3.779528,1299.500013,1737.5)">
            <g transform="matrix(1,0,0,1,1.607939,111.254995)">
                <g transform="matrix(0.285815,0,0,0.285815,-478.20318,-365.866502)">
                    <path fill="#ffffff" d="M2350,2454.627L2350,2679.373C2350,2706.763 2327.763,2729 2300.373,2729L2075.627,2729C2048.237,2729 2026,2706.763 2026,2679.373L2026,2454.627C2026,2427.237 2048.237,2405 2075.627,2405L2300.373,2405C2327.763,2405 2350,2427.237 2350,2454.627ZM2159.083,2583.575C2158.965,2585.655 2158.906,2587.774 2158.906,2589.932C2158.906,2598.573 2160.422,2605.896 2163.455,2611.9C2166.488,2617.905 2171.341,2622.446 2178.014,2625.524C2184.687,2628.601 2193.408,2630.14 2204.176,2630.14C2211.964,2630.14 2226.323,2629.776 2233.504,2629.047C2240.684,2628.319 2242.273,2628.41 2247.034,2627.64L2249.165,2614.246L2218.751,2614.27C2207.232,2614.27 2192.105,2612.495 2187.119,2608.945C2182.134,2605.394 2179.641,2599.768 2179.641,2592.065C2179.641,2590.209 2179.695,2588.319 2179.805,2586.393C2179.859,2585.438 2179.936,2584.499 2180.035,2583.577L2203.257,2583.579C2204.926,2583.628 2206.644,2583.652 2208.41,2583.652C2209.841,2583.652 2211.26,2583.628 2212.666,2583.58C2217.819,2583.403 2222.808,2582.902 2227.632,2582.077C2233.772,2581.027 2239.247,2579.174 2244.058,2576.52C2248.869,2573.866 2252.677,2570.083 2255.481,2565.171C2258.285,2560.26 2259.687,2554.012 2259.687,2546.427C2259.687,2540.313 2258.626,2535.215 2256.505,2531.133C2254.383,2527.051 2251.48,2523.827 2247.794,2521.46C2244.108,2519.094 2239.776,2517.401 2234.8,2516.382C2229.824,2515.364 2224.445,2514.854 2218.661,2514.854C2207.339,2514.854 2197.704,2516.789 2189.757,2520.658C2181.809,2524.526 2175.482,2530.303 2170.777,2537.988C2166.071,2545.673 2162.822,2555.342 2161.03,2566.995C2160.746,2568.791 2160.479,2570.623 2160.229,2572.491L2140.98,2572.491L2151.939,2504.568C2152.897,2498.153 2154.295,2492.758 2156.131,2488.384C2157.967,2484.01 2160.787,2480.704 2164.591,2478.466C2168.394,2476.228 2173.579,2475.109 2180.145,2475.109L2271.3,2475.109L2274.943,2452.213C2274.943,2452.213 2190.247,2450.638 2183.8,2450.638C2174.501,2450.638 2166.696,2451.844 2160.386,2454.255C2154.077,2456.667 2148.975,2460.026 2145.08,2464.332C2141.185,2468.638 2138.189,2473.573 2136.091,2479.137C2133.993,2484.701 2132.414,2490.636 2131.355,2496.941L2119.67,2572.497L2102.672,2572.497L2101.057,2582.647L2117.292,2582.647L2101.697,2683.362L2123.78,2683.362L2139.088,2583.573L2159.083,2583.575ZM2188.19,2572.491L2180.951,2572.491C2182.176,2564.327 2184.928,2554.343 2187.561,2548.681C2190.193,2543.019 2193.885,2538.705 2198.637,2535.74C2203.389,2532.775 2209.577,2531.292 2217.2,2531.292C2224.798,2531.292 2230.481,2532.637 2234.249,2535.325C2238.017,2538.013 2239.901,2542.452 2239.901,2548.643C2239.901,2554.321 2238.387,2558.819 2235.358,2562.135C2232.33,2565.451 2227.999,2567.788 2222.365,2569.146C2217.681,2570.275 2201.067,2572.149 2188.19,2572.491Z"/>
                </g>
            </g>
        </g>
    </g>
</svg>