<svg width="165" height="25" viewBox="0 0 165 25" fill="none" xmlns="http://www.w3.org/2000/svg">
<path d="M0 24.9426C0.249069 24.4566 0.573613 23.8505 0.838018 23.3677C1.07651 22.932 1.29544 22.5571 1.59792 22.0383L1.62119 21.9986C1.76978 21.7443 1.93688 21.4571 2.13413 21.1155C2.76024 20.0304 3.15844 19.3562 3.44928 18.8639C3.86493 18.1595 4.0939 17.7719 4.5106 17.003C5.74855 14.7185 6.436 13.59 7.04202 12.5938C7.31805 12.14 7.57876 11.7122 7.8622 11.222C8.88598 9.45104 10.655 8.35059 12.8388 8.35059H16.2703L6.68753 24.9426H0Z" fill="#2E99FF"/>
<path d="M0.0302734 0.771484H20.6205L17.1024 6.90568H0.0302734V0.771484Z" fill="#475AFF"/>
<path d="M8.36719 24.9295C9.13515 23.5736 9.85455 22.3007 10.508 21.1437L10.5196 21.1227C11.2939 19.7539 12.5385 18.9035 14.2818 18.9035L20.7226 18.8857V24.9435L8.36772 24.9295H8.36719Z" fill="#09C2FF"/>
<path d="M155.227 20.1486V9.20218H157.807V10.5341H157.953C158.39 9.72244 159.472 8.93164 161.033 8.93164C163.488 8.93164 164.987 10.6589 164.987 12.9897V20.1486H162.281V13.6973C162.281 12.3654 161.428 11.4705 160.179 11.4705C158.868 11.4705 157.932 12.5111 157.932 13.8846V20.1486H155.227Z" fill="#080808"/>
<path d="M151.532 7.74494C150.554 7.74494 149.867 7.14144 149.867 6.16333C149.867 5.22686 150.554 4.60254 151.532 4.60254C152.51 4.60254 153.197 5.22686 153.197 6.16333C153.197 7.14144 152.51 7.74494 151.532 7.74494ZM150.179 20.1481V9.20169H152.885V20.1481H150.179Z" fill="#080808"/>
<path d="M137.384 20.4191C134.158 20.4191 131.869 18.0051 131.869 14.7378C131.869 11.2832 134.179 8.93164 137.384 8.93164C140.901 8.93164 142.816 11.533 142.816 14.6129V15.4662H134.491C134.575 17.131 135.719 18.2548 137.467 18.2548C138.799 18.2548 139.819 17.6305 140.193 16.7356H142.711C142.17 18.9624 140.214 20.4191 137.384 20.4191ZM134.533 13.5516H140.235C140.11 12.074 138.966 11.0959 137.384 11.0959C135.865 11.0959 134.699 12.1781 134.533 13.5516Z" fill="#080808"/>
<path d="M119.315 24.935V9.20218H121.979V10.5965H122.125C122.416 10.1387 123.415 8.93164 125.413 8.93164C128.472 8.93164 130.574 11.2208 130.574 14.6337C130.574 18.0467 128.493 20.4191 125.496 20.4191C123.561 20.4191 122.52 19.337 122.166 18.7334H122.021V24.935H119.315ZM124.893 17.9634C126.641 17.9634 127.827 16.6108 127.827 14.6754C127.827 12.6776 126.641 11.3873 124.872 11.3873C123.082 11.3873 121.958 12.8232 121.958 14.6754C121.958 16.7148 123.207 17.9634 124.893 17.9634Z" fill="#080808"/>
<path d="M106.076 24.935V9.20218H108.74V10.5965H108.886C109.177 10.1387 110.176 8.93164 112.174 8.93164C115.233 8.93164 117.335 11.2208 117.335 14.6337C117.335 18.0467 115.254 20.4191 112.257 20.4191C110.322 20.4191 109.281 19.337 108.927 18.7334H108.782V24.935H106.076ZM111.653 17.9634C113.401 17.9634 114.588 16.6108 114.588 14.6754C114.588 12.6776 113.401 11.3873 111.633 11.3873C109.843 11.3873 108.719 12.8232 108.719 14.6754C108.719 16.7148 109.968 17.9634 111.653 17.9634Z" fill="#080808"/>
<path d="M98.6613 20.4191C95.4356 20.4191 93.1465 18.0051 93.1465 14.7378C93.1465 11.2832 95.4565 8.93164 98.6613 8.93164C102.178 8.93164 104.093 11.533 104.093 14.6129V15.4662H95.7686C95.8519 17.131 96.9964 18.2548 98.7445 18.2548C100.076 18.2548 101.096 17.6305 101.471 16.7356H103.989C103.448 18.9624 101.492 20.4191 98.6613 20.4191ZM95.8102 13.5516H101.512C101.387 12.074 100.243 11.0959 98.6613 11.0959C97.1421 11.0959 95.9767 12.1781 95.8102 13.5516Z" fill="#080808"/>
<path d="M81.2061 20.1475V17.671L88.7811 8.11897V7.9733H81.4766V5.58008H92.2357V8.03573L84.6606 17.5878V17.7543H92.2773V20.1475H81.2061Z" fill="#080808"/>
<path d="M69.707 20.1486V9.20218H72.2875V10.5341H72.4332C72.8702 9.72244 73.9524 8.93164 75.5132 8.93164C77.9688 8.93164 79.4672 10.6589 79.4672 12.9897V20.1486H76.7618V13.6973C76.7618 12.3654 75.9086 11.4705 74.6599 11.4705C73.3489 11.4705 72.4124 12.5111 72.4124 13.8846V20.1486H69.707Z" fill="#080808"/>
<path d="M62.2882 20.4191C59.0626 20.4191 56.7734 18.0051 56.7734 14.7378C56.7734 11.2832 59.0834 8.93164 62.2882 8.93164C65.8052 8.93164 67.7198 11.533 67.7198 14.6129V15.4662H59.3956C59.4788 17.131 60.6234 18.2548 62.3715 18.2548C63.7034 18.2548 64.7231 17.6305 65.0977 16.7356H67.6157C67.0747 18.9624 65.1185 20.4191 62.2882 20.4191ZM59.4372 13.5516H65.1393C65.0144 12.074 63.8698 11.0959 62.2882 11.0959C60.7691 11.0959 59.6037 12.1781 59.4372 13.5516Z" fill="#080808"/>
<path d="M44.2227 24.935V9.20218H46.8864V10.5965H47.0321C47.3234 10.1387 48.3223 8.93164 50.3202 8.93164C53.3793 8.93164 55.4812 11.2208 55.4812 14.6337C55.4812 18.0467 53.4001 20.4191 50.4034 20.4191C48.468 20.4191 47.4275 19.337 47.0737 18.7334H46.928V24.935H44.2227ZM49.7999 17.9634C51.548 17.9634 52.7342 16.6108 52.7342 14.6754C52.7342 12.6776 51.548 11.3873 49.7791 11.3873C47.9894 11.3873 46.8656 12.8232 46.8656 14.6754C46.8656 16.7148 48.1142 17.9634 49.7999 17.9634Z" fill="#080808"/>
<path d="M34.4981 20.4181C30.0863 20.4181 26.8398 17.1924 26.8398 12.8638C26.8398 8.57684 30.1071 5.30957 34.5189 5.30957C38.9308 5.30957 42.1981 8.61846 42.1981 12.8638C42.1981 17.1508 38.91 20.4181 34.4981 20.4181ZM34.5189 17.7751C37.3076 17.7751 39.3054 15.6941 39.3054 12.8638C39.3054 10.0752 37.3076 7.95252 34.5189 7.95252C31.7095 7.95252 29.7117 10.0752 29.7117 12.8638C29.7117 15.6941 31.7095 17.7751 34.5189 17.7751Z" fill="#080808"/>
<rect x="145.069" y="4.58984" width="2.62464" height="15.558" fill="#080808"/>
</svg>
